<svg width="32" height="32" viewBox="0 0 32 32" fill="none" xmlns="http://www.w3.org/2000/svg">
<g id="Group 2856810">
<rect id="Rectangle 1679" opacity="0.3" width="32" height="32" rx="8.75" transform="matrix(-1 0 0 1 32 0)" fill="#685EDB"/>
<path id="Vector" opacity="0.8" fill-rule="evenodd" clip-rule="evenodd" d="M10.659 29.0912L21.3543 29.0912C25.9754 29.0912 29.091 26.1183 29.091 21.6818L29.091 10.332C29.091 5.89415 25.9754 2.90942 21.3543 2.90942L10.659 2.90942C6.02482 2.90942 2.90918 5.89415 2.90918 10.332L2.90918 21.6818C2.90918 26.1183 6.02482 29.0912 10.659 29.0912ZM13.0285 15.0185L21.3412 15.0185C21.891 15.0185 22.323 15.4636 22.323 16.0003C22.323 16.5502 21.891 16.9822 21.3412 16.9822L13.0285 16.9822L16.275 20.2156C16.4583 20.3989 16.563 20.6607 16.563 20.9094C16.563 21.1569 16.4583 21.4069 16.275 21.6032C15.8954 21.9829 15.267 21.9829 14.8874 21.6032L9.95209 16.6942C9.58554 16.3276 9.58554 15.673 9.95209 15.3065L14.8874 10.3974C15.267 10.0178 15.8954 10.0178 16.275 10.3974C16.6546 10.7901 16.6546 11.4054 16.275 11.7981L13.0285 15.0185Z" fill="#FDFDFD"/>
</g>
</svg>
