<svg width="32" height="32" viewBox="0 0 32 32" fill="none" xmlns="http://www.w3.org/2000/svg">
<g id="Group 2856810">
<rect id="Rectangle 1679" opacity="0.3" width="32" height="32" rx="8.75" transform="matrix(-1 0 0 1 32 0)" fill="white"/>
<path id="Vector" opacity="0.8" fill-rule="evenodd" clip-rule="evenodd" d="M10.6591 29.0912L21.3543 29.0912C25.9754 29.0912 29.0911 26.1183 29.0911 21.6818L29.0911 10.332C29.0911 5.89415 25.9754 2.90942 21.3543 2.90942L10.6591 2.90942C6.02489 2.90942 2.90925 5.89415 2.90925 10.332L2.90925 21.6818C2.90925 26.1183 6.02489 29.0912 10.6591 29.0912ZM13.0285 15.0185L21.3413 15.0185C21.8911 15.0185 22.3231 15.4636 22.3231 16.0003C22.3231 16.5502 21.8911 16.9822 21.3413 16.9822L13.0285 16.9822L16.2751 20.2156C16.4583 20.3989 16.5631 20.6607 16.5631 20.9094C16.5631 21.1569 16.4583 21.4069 16.2751 21.6032C15.8954 21.9829 15.2671 21.9829 14.8874 21.6032L9.95216 16.6942C9.58562 16.3276 9.58562 15.673 9.95216 15.3065L14.8874 10.3974C15.2671 10.0178 15.8954 10.0178 16.2751 10.3974C16.6547 10.7901 16.6547 11.4054 16.2751 11.7981L13.0285 15.0185Z" fill="#FDFDFD"/>
</g>
</svg>
